<?xml version="1.0" encoding="UTF-8"?>
<svg id="Layer_1" data-name="Layer 1" xmlns="http://www.w3.org/2000/svg" width="182.5" height="182.5" viewBox="0 0 182.5 182.5">
  <defs>
    <style>
      .cls-1 {
        fill: #f2f2f2;
      }

      .cls-2 {
        fill: #f48022;
      }

      .cls-3 {
        fill: #fff;
      }

      .cls-4 {
        fill: #333f48;
      }
    </style>
  </defs>
  <circle class="cls-1" cx="91.25" cy="91.25" r="91.25"/>
  <path class="cls-2" d="m156,143.25H26.51l-10.86-10.87v-8.14h60.08l4.72,4.76h21.6l4.72-4.72h60.08v8.14l-10.85,10.83Zm-127.49-4.85h125.49l8-8v-1.3h-53.22l-4.72,4.72h-25.62l-4.72-4.72H20.49v1.3l8.02,8Z"/>
  <path class="cls-2" d="m157.41,119.58h-4.84V48.76c0-2.574-2.086-4.66-4.66-4.66H34.59c-2.574,0-4.66,2.086-4.66,4.66v70.82h-4.84V48.76c.006-5.246,4.254-9.499,9.5-9.51h113.32c5.246.011,9.495,4.264,9.5,9.51v70.82Z"/>
  <path class="cls-4" d="m65.28,116.36h-28.33V51.12h108.6v65.24H60.81"/>
  <g>
    <path class="cls-3" d="m111.29,68h24.31v4.34h-24.31v-4.34Z"/>
    <path class="cls-3" d="m111.29,82.6h24.31v4.34h-24.31v-4.34Z"/>
    <path class="cls-3" d="m111.29,97.2h24.31v4.34h-24.31v-4.34Z"/>
    <g>
      <path class="cls-3" d="m64.964,84.33h-.021v-.735h-1.269v4.773h1.318v-2.546s.062-1.165,1.2-1.165c.097,0,.257.014.409.049v-1.207c-.09-.021-.298-.042-.375-.042-.52,0-.964.423-1.263.874Zm-8.99-2.067h-1.297v1.332h-.805v1.054h.805v2.102c0,.735.18,1.727,1.595,1.727.277,0,.624-.055.832-.139l-.035-1.034c-.132.042-.333.097-.576.097-.382,0-.52-.271-.52-.666v-2.088h1.152v-1.054h-1.152v-1.332Zm5.265,3.947c0,.562-.368,1.165-1.047,1.165-.527,0-.805-.375-.805-1.145v-2.636h-1.318v2.962c0,.985.493,1.942,1.804,1.942.617,0,1.138-.486,1.401-.846h.021v.714h1.263v-4.773h-1.318v2.615Zm29.683-.375l1.713-2.241h-1.533l-.985,1.367-.957-1.367h-1.595l1.727,2.241-1.935,2.532h1.575l1.165-1.616,1.158,1.616h1.609l-1.942-2.532Zm-20.762-2.379c-.604,0-1.047.264-1.464.659h-.028v-3.149h-1.318v7.402h1.263v-.673h.021c.298.486.888.812,1.498.812,1.36,0,2.393-1.068,2.393-2.539,0-1.45-1.02-2.504-2.365-2.504v-.007Zm-.257,3.912c-.791,0-1.269-.708-1.269-1.394s.486-1.415,1.269-1.415c.853,0,1.276.721,1.276,1.394s-.465,1.415-1.276,1.415Zm10.912-5.112h-1.297v1.332h-.805v1.054h.805v2.102c0,.735.18,1.727,1.595,1.727.277,0,.624-.055.832-.139l-.035-1.034c-.132.042-.333.097-.576.097-.382,0-.52-.271-.52-.666v-2.088h1.152v-1.054h-1.152v-1.332Zm-5.092,1.2c-1.498,0-2.587,1.054-2.587,2.504s1.11,2.553,2.587,2.553,2.587-1.061,2.587-2.553-1.089-2.504-2.587-2.504Zm0,3.912c-.86,0-1.249-.735-1.249-1.415s.388-1.394,1.249-1.394,1.249.721,1.249,1.394-.388,1.415-1.249,1.415Zm9.177-3.912c-.756,0-1.526.305-2.046.784l.673.756c.312-.312.846-.506,1.269-.506.472,0,.95.236.95.798v.083c-1.38.007-3.142.173-3.142,1.595,0,1.047.909,1.512,1.811,1.512.562,0,1.047-.319,1.346-.666h.028v.555h1.242v-2.886c0-.749-.277-2.019-2.137-2.019l.007-.007Zm.874,2.886c0,.708-.402,1.152-1.124,1.152-.271,0-.749-.083-.749-.506,0-.458.576-.742,1.7-.742h.173v.104-.007Z"/>
      <path class="cls-3" d="m46.963,78.191c-3.066,0-5.549,2.483-5.549,5.549s2.483,5.549,5.549,5.549,5.549-2.483,5.549-5.549-2.483-5.549-5.549-5.549Zm-.617,9.781c-.86-.506-2.109-1.422-3.045-2.213.173-.499.368-.985.583-1.457.59.52,1.2,1.013,1.838,1.471,1.047-1.991,2.518-3.725,4.287-5.085.347.347.638.756.853,1.207-1.665,1.311-3.399,3.191-4.516,6.077Z"/>
      <path class="cls-3" d="m60.99,79.952c0,.624.499,1.082,1.131,1.082s1.138-.458,1.138-1.082v-1.436h-.617v1.36c0,.34-.222.562-.52.562s-.52-.229-.52-.562v-1.36h-.617v1.436h.007Z"/>
      <path class="cls-3" d="m64.895,79.092h.735v1.887h.617v-1.887h.735v-.576h-2.081v.576h-.007Z"/>
      <path class="cls-3" d="m64.5,78.517h-.617v2.463h.617v-2.463Z"/>
      <path class="cls-3" d="m58.506,79.092h.735v1.887h.617v-1.887h.735v-.576h-2.081v.576h-.007Z"/>
      <path class="cls-3" d="m55.287,78.517h-.617v2.463h.617v-2.463Z"/>
      <path class="cls-3" d="m58.18,79.55c0-.624-.499-1.082-1.138-1.082s-1.138.458-1.138,1.082v1.429h.617v-1.36c0-.34.229-.562.52-.562s.52.229.52.562v1.36h.617v-1.429Z"/>
    </g>
  </g>
  <path class="cls-2" d="m105.16,68.36l-.86-.85-2.4,2.4-1.37-1.37-.86.85,2.23,2.23,3.26-3.26Z"/>
  <path class="cls-2" d="m102.41,75.12c-3.071-.017-5.546-2.519-5.53-5.59.017-3.071,2.519-5.546,5.59-5.53,3.059.017,5.53,2.501,5.53,5.56-.006,3.076-2.504,5.566-5.58,5.56-.003,0-.007,0-.01,0Zm0-10.62c-2.8,0-5.07,2.27-5.07,5.07s2.27,5.07,5.07,5.07,5.07-2.27,5.07-5.07v-.01c-.006-2.796-2.274-5.06-5.07-5.06Z"/>
  <path class="cls-2" d="m105.16,83.57l-.86-.85-2.4,2.4-1.37-1.37-.86.85,2.23,2.23,3.26-3.26Z"/>
  <path class="cls-2" d="m102.41,90.33c-3.071-.017-5.546-2.519-5.53-5.59.017-3.071,2.519-5.546,5.59-5.53,3.059.017,5.53,2.501,5.53,5.56-.006,3.076-2.504,5.566-5.58,5.56h-.01Zm0-10.62c-2.8,0-5.07,2.27-5.07,5.07s2.27,5.07,5.07,5.07,5.07-2.27,5.07-5.07v-.01c-.006-2.796-2.274-5.06-5.07-5.06Z"/>
  <path class="cls-2" d="m105.16,98.17l-.86-.86-2.4,2.4-1.37-1.37-.86.86,2.23,2.23,3.26-3.26Z"/>
  <path class="cls-2" d="m102.41,104.93c-3.071-.017-5.546-2.519-5.53-5.59.017-3.071,2.519-5.546,5.59-5.53,3.059.017,5.53,2.501,5.53,5.56-.006,3.076-2.504,5.566-5.58,5.56-.003,0-.007,0-.01,0Zm0-10.63c-2.8,0-5.07,2.27-5.07,5.07s2.27,5.07,5.07,5.07,5.07-2.27,5.07-5.07-2.27-5.07-5.07-5.07Z"/>
</svg>