<svg height="50" viewBox="0 0 50 50" width="50" xmlns="http://www.w3.org/2000/svg"><path d="m45.154 39.612v-3.016h-3.329v-3.215c0-7.757-7.478-12.189-16.616-12.189s-16.616 2.908-16.616 12.189v3.215h-3.747v2.602h6.094v3.462h-1.108c-.688.038-1.215.627-1.177 1.315.007.119.03.236.07.348l1.801 4.844c.157.483.6.815 1.108.831h27.423c.525.039.998-.316 1.108-.831l1.797-4.844c.174-.365.121-.797-.135-1.109-.266-.343-.674-.547-1.108-.554h-1.108v-3.048h5.544zm-32.413 8.31v-15.372c-.013-.522.4-.956.922-.969h.048 22.992c.522-.014.956.399.97.921v.048l.003 15.372zm7.716-34.066h.509c.17-.424.594-.764 1.188-.764h1.951c.679 0 1.273.594 1.273 1.273s-.594 1.273-1.273 1.273h-1.951c-.509 0-1.018-.255-1.103-.764h-.509s-1.935.183-3.722-1.125c1.536 2.994 4.637 5.058 8.235 5.088h.155c5.202 0 9.418-4.217 9.418-9.418s-4.217-9.419-9.419-9.419-9.418 4.217-9.418 9.418c-.005.555.048 1.095.137 1.624 1.264 2.936 4.447 2.813 4.529 2.813zm4.804 24.098c-.017 0-.034 0-.052 0v-.004c-1.224 0-2.217.991-2.218 2.215 0 1.224.991 2.217 2.215 2.218s2.217-.991 2.218-2.215c.013-1.21-.955-2.201-2.164-2.214zm-11.171-25.472h.13c.342 0 .633-.204.77-.494-.245-.823-.375-1.696-.368-2.6 0-.941.148-1.847.419-2.698-.084-.385-.411-.678-.821-.678h-.13c-.746 0-1.35.604-1.35 1.35v3.77c0 .746.604 1.35 1.35 1.35z" fill="#fff"/></svg>