<?xml version="1.0" standalone="no"?>
<!DOCTYPE svg PUBLIC "-//W3C//DTD SVG 20010904//EN"
 "http://www.w3.org/TR/2001/REC-SVG-20010904/DTD/svg10.dtd">
<svg version="1.0" xmlns="http://www.w3.org/2000/svg"
 width="600.000000pt" height="600.000000pt" viewBox="0 0 600.000000 600.000000"
 preserveAspectRatio="xMidYMid meet">
<metadata>
Created by potrace 1.14, written by Peter Selinger 2001-2017
</metadata>
<g transform="translate(0.000000,600.000000) scale(0.100000,-0.100000)"
fill="#000000" stroke="none">
<path d="M2785 5950 c-334 -25 -684 -111 -975 -242 -93 -42 -260 -127 -292
-149 -14 -11 -29 -19 -32 -19 -10 0 -213 -138 -280 -189 -188 -146 -360 -315
-529 -522 -45 -54 -186 -266 -240 -359 -164 -283 -296 -653 -346 -965 -6 -38
-16 -104 -23 -145 -20 -118 -16 -619 5 -750 40 -245 63 -348 118 -518 119
-364 307 -704 553 -998 79 -96 325 -334 416 -405 103 -80 283 -202 365 -249
204 -115 444 -218 630 -270 17 -5 48 -14 70 -20 421 -118 932 -133 1375 -40
344 73 649 196 953 384 265 164 562 429 737 656 19 25 37 47 40 50 20 19 137
192 187 275 185 308 328 693 382 1030 6 39 16 104 23 145 17 104 17 600 0 705
-42 260 -49 291 -97 470 -65 241 -221 580 -367 798 -494 739 -1244 1206 -2103
1311 -159 19 -421 27 -570 16z m-882 -689 c147 -48 307 -183 474 -401 50 -65
193 -276 193 -284 0 -2 18 -34 41 -71 22 -37 49 -83 60 -101 10 -19 27 -49 38
-66 169 -293 212 -372 207 -383 -2 -7 -19 -16 -38 -20 -36 -8 -144 -110 -170
-160 -14 -28 -23 -45 -77 -137 -10 -18 -69 -121 -131 -228 -62 -107 -121 -210
-131 -227 -39 -68 -64 -111 -344 -598 -420 -731 -408 -709 -524 -967 -11 -25
-31 -78 -43 -117 -13 -39 -26 -71 -29 -71 -4 0 -9 15 -13 32 -11 63 -18 2322
-8 2828 10 484 11 509 34 595 80 301 255 444 461 376z m543 -110 c5 -4 38 -24
74 -43 157 -86 684 -384 1035 -588 199 -115 217 -125 260 -150 62 -36 98 -57
190 -110 50 -29 104 -60 120 -70 68 -39 212 -124 410 -240 116 -68 312 -183
438 -256 294 -173 336 -201 433 -298 82 -83 141 -170 168 -251 19 -55 20 -156
2 -206 -35 -99 -161 -196 -327 -252 -238 -81 -544 -110 -1089 -105 l-305 3 3
62 c2 36 -3 83 -12 115 -12 43 -145 282 -407 736 -11 17 -28 48 -39 67 -11 19
-28 50 -39 68 -10 17 -105 183 -211 367 -325 565 -399 691 -482 815 -72 106
-185 260 -220 297 -35 36 -41 48 -26 48 8 0 18 -4 24 -9z m-195 -2715 c16 -14
54 -34 85 -46 l57 -21 1191 5 c767 2 1221 8 1276 15 116 14 208 28 248 36 18
4 32 3 32 -2 0 -8 -342 -220 -375 -232 -5 -2 -29 -17 -52 -32 -23 -16 -44 -29
-46 -29 -3 0 -35 -18 -72 -41 -37 -22 -83 -49 -101 -60 -19 -10 -49 -28 -68
-38 -18 -10 -66 -39 -107 -64 -41 -24 -119 -70 -174 -102 -55 -32 -113 -65
-130 -75 -232 -135 -554 -321 -605 -350 -36 -20 -82 -46 -102 -58 -21 -12 -54
-31 -73 -42 -19 -11 -51 -29 -70 -40 -19 -11 -51 -29 -70 -40 -19 -11 -51 -29
-70 -40 -19 -11 -51 -29 -70 -40 -87 -50 -103 -59 -153 -89 -29 -17 -55 -31
-58 -31 -3 0 -18 -8 -32 -18 -15 -11 -52 -32 -82 -49 -61 -34 -104 -58 -170
-97 -306 -180 -570 -224 -744 -122 -93 55 -136 150 -136 305 0 185 68 409 210
692 47 94 310 562 392 697 24 38 31 39 69 8z"/>
<path d="M5303 846 c-206 -50 -330 -225 -309 -436 14 -131 101 -252 226 -313
60 -29 73 -31 165 -31 92 0 105 2 167 32 83 41 149 107 191 192 30 61 32 72
32 170 -1 99 -2 109 -34 170 -59 117 -160 194 -289 219 -64 13 -82 13 -149 -3z
m172 -79 c63 -20 98 -42 144 -92 62 -68 85 -124 85 -215 1 -66 -3 -84 -32
-142 -40 -82 -104 -138 -190 -167 -73 -25 -110 -26 -176 -6 -128 39 -203 119
-237 253 -26 104 26 241 116 310 87 66 197 88 290 59z"/>
<path d="M5235 678 c-3 -7 -4 -110 -3 -228 l3 -215 50 0 50 0 3 93 3 92 29 0
c46 0 64 -29 70 -113 l5 -72 51 -3 51 -3 -5 83 c-4 87 -18 122 -52 133 -19 6
-18 9 15 39 31 30 35 39 35 85 0 42 -5 56 -29 83 l-29 33 -121 3 c-95 3 -122
1 -126 -10z m188 -85 c9 -9 17 -27 17 -40 0 -32 -44 -75 -73 -71 -19 3 -22 10
-25 57 -4 73 2 85 36 76 15 -3 35 -14 45 -22z"/>
</g>
</svg>
